<svg version="1.1" id="Layer_1" xmlns="http://www.w3.org/2000/svg" xmlns:xlink="http://www.w3.org/1999/xlink" x="0px" y="0px"
	 width="100%" viewBox="0 0 1250 1250" enable-background="new 0 0 1250 1250" xml:space="preserve">
<path fill="#000000" opacity="1.000000" stroke="none" 
	d="
M690.000000,1251.000000 
	C460.000000,1251.000000 230.500000,1251.000000 1.000000,1251.000000 
	C1.000000,834.333313 1.000000,417.666656 1.000000,1.000000 
	C417.666656,1.000000 834.333313,1.000000 1251.000000,1.000000 
	C1251.000000,417.666656 1251.000000,834.333313 1251.000000,1251.000000 
	C1064.166626,1251.000000 877.333313,1251.000000 690.000000,1251.000000 
M580.460510,1026.976074 
	C582.255493,1029.096680 583.964844,1031.297119 585.858887,1033.325195 
	C601.123657,1049.669556 618.282227,1063.274902 639.124756,1072.130493 
	C655.013367,1078.881104 671.397888,1084.147949 688.487244,1084.703003 
	C709.878113,1085.397949 731.352905,1086.130493 752.736816,1082.170532 
	C777.909302,1077.509033 801.665527,1069.003174 824.861694,1058.581421 
	C835.273438,1053.903687 845.123413,1048.448120 853.422791,1040.258179 
	C860.551331,1033.223511 869.075256,1027.557495 875.896057,1020.269714 
	C882.177429,1013.558289 888.060364,1006.035950 892.267700,997.912109 
	C901.187012,980.689819 912.462463,965.242676 926.078918,951.758667 
	C938.997131,938.966187 953.172729,927.426819 967.001038,915.576477 
	C975.530457,908.267029 984.072144,900.872192 993.267334,894.460938 
	C1010.294373,882.589233 1025.904907,869.177368 1040.249878,854.236023 
	C1046.783813,847.430481 1053.837524,841.013062 1059.585815,833.591064 
	C1067.476196,823.403503 1074.884277,812.749451 1081.514526,801.704224 
	C1088.610229,789.883240 1095.563721,777.784851 1100.760132,765.064453 
	C1107.226562,749.235413 1112.153198,732.743591 1117.132935,716.352112 
	C1120.914062,703.905579 1124.185425,691.262451 1126.862671,678.534119 
	C1129.460693,666.182312 1131.040527,653.614929 1133.015259,641.133911 
	C1135.042847,628.317627 1137.222778,615.520142 1138.941528,602.661743 
	C1140.862915,588.287231 1142.331543,573.852478 1144.014160,559.445923 
	C1145.999756,542.444031 1148.208862,525.464966 1149.924194,508.436035 
	C1150.995117,497.805786 1151.947266,487.097870 1151.880737,476.431488 
	C1151.703491,447.998047 1153.484009,419.506226 1149.089478,391.173248 
	C1146.551392,374.809418 1141.525146,359.277740 1134.665527,344.368652 
	C1120.490112,313.559021 1099.113403,288.457123 1072.821655,267.224030 
	C1048.983765,247.972778 1022.287903,234.167648 993.583496,223.904633 
	C973.329224,216.662888 952.643494,211.237381 931.212708,209.009933 
	C916.894470,207.521729 902.561035,205.479141 888.206909,205.222885 
	C871.720642,204.928574 855.182434,206.009949 838.707886,207.108917 
	C827.177917,207.878052 815.472717,208.633118 804.277527,211.244965 
	C783.348267,216.127747 762.444519,221.485367 742.058716,228.240494 
	C715.778564,236.948776 691.166382,249.545929 667.866272,264.593750 
	C651.840515,274.943634 636.352661,286.022736 622.943848,299.664703 
	C611.208862,311.603760 599.139832,323.339813 588.581177,336.277802 
	C575.640747,352.134125 565.192383,369.823456 557.124817,388.713531 
	C553.282959,397.708984 549.017151,406.605225 549.848022,417.067627 
	C550.576477,426.241364 559.142944,438.505066 568.268127,439.846497 
	C582.289307,441.907623 593.622314,437.350006 599.998108,421.599915 
	C601.860840,416.998505 603.561462,412.318817 605.669373,407.831451 
	C618.029114,381.519318 634.581238,358.241760 656.527344,339.049225 
	C665.980591,330.782074 675.449768,322.410034 685.691528,315.192047 
	C710.784485,297.507446 738.044861,283.751129 767.313232,274.485718 
	C783.212891,269.452454 799.572449,265.783295 815.860718,262.101013 
	C824.857056,260.067200 834.102722,258.976349 843.293396,258.001190 
	C855.349976,256.721954 867.449585,255.546371 879.557190,255.163696 
	C886.698181,254.938004 893.915588,256.134125 901.053833,257.042938 
	C912.809143,258.539551 924.596375,259.945740 936.248474,262.060455 
	C961.671631,266.674408 985.837585,275.055481 1008.685425,287.222015 
	C1032.244385,299.767303 1053.011841,315.589813 1069.487183,336.872101 
	C1080.151489,350.647858 1088.212524,365.770508 1093.885010,382.095703 
	C1100.373779,400.770203 1101.498901,420.408813 1101.816284,439.931091 
	C1102.065430,455.253601 1100.936279,470.620575 1099.925415,485.935211 
	C1098.944824,500.793823 1097.403809,515.617554 1095.979370,530.444153 
	C1094.747803,543.263306 1093.510498,556.086426 1091.955444,568.868835 
	C1090.151855,583.695374 1088.119019,598.496948 1085.960693,613.276550 
	C1084.134766,625.780151 1082.677124,638.396362 1079.835327,650.680176 
	C1074.438965,674.006348 1068.355103,697.179871 1062.201416,720.322388 
	C1057.468750,738.120667 1049.665161,754.739502 1039.826294,770.192993 
	C1031.244629,783.672058 1022.431030,797.268616 1011.832703,809.126526 
	C1000.456787,821.854248 987.317261,833.139282 974.162415,844.112854 
	C952.925476,861.828247 930.494873,878.139038 909.630249,896.265320 
	C895.609375,908.446106 882.335449,921.866150 870.733765,936.339966 
	C860.238342,949.433716 851.874878,964.381165 843.682129,979.128357 
	C837.510437,990.237366 829.492126,998.450195 818.133850,1004.086365 
	C799.405457,1013.379883 780.471375,1022.025574 760.184875,1027.385010 
	C744.448181,1031.542358 728.584412,1034.980835 712.206177,1034.949097 
	C706.790405,1034.938477 701.300171,1034.786255 695.977844,1033.897461 
	C687.246765,1032.439331 678.342957,1031.155518 670.014526,1028.321411 
	C651.319153,1021.959595 635.098938,1011.743225 622.409973,996.065063 
	C608.177307,978.479614 599.487122,958.457520 595.133179,936.573181 
	C591.895508,920.299438 584.772034,909.561707 566.258728,909.585266 
	C555.163513,909.599426 541.746704,922.515869 542.991394,933.444580 
	C543.379333,936.850708 543.516907,940.290527 544.021912,943.677246 
	C546.479004,960.153870 551.616272,975.823853 558.466492,990.964844 
	C564.207153,1003.653259 571.466980,1015.421265 580.460510,1026.976074 
M500.457916,883.025696 
	C505.961182,873.137817 511.800446,863.418762 516.876038,853.316040 
	C522.295044,842.529785 527.270813,831.497070 531.915527,820.353333 
	C535.448669,811.876221 538.207520,803.073059 541.225220,794.385315 
	C543.881409,786.738342 546.672302,779.123718 548.928467,771.356812 
	C550.717712,765.197205 551.671143,758.799866 553.211304,752.561279 
	C554.660400,746.691711 556.867676,740.973450 557.884644,735.041687 
	C559.337463,726.567200 560.158264,717.973083 560.979553,709.404297 
	C562.117493,697.530884 563.390198,685.649719 563.891235,673.741882 
	C564.388184,661.930664 564.260437,650.074829 563.926758,638.252075 
	C563.593079,626.431030 562.696472,614.624817 561.978821,602.816223 
	C561.760559,599.224976 561.595276,595.594116 560.920593,592.074402 
	C559.445984,584.380371 557.577881,576.762695 556.027344,569.082092 
	C554.751282,562.761047 554.085022,556.294434 552.464722,550.070312 
	C549.740845,539.607056 546.557739,529.259583 543.406860,518.912476 
	C541.278076,511.921753 539.198975,504.885712 536.506653,498.104584 
	C533.339539,490.127869 529.723999,482.312012 525.962280,474.592407 
	C519.394104,461.113770 512.982605,447.530487 505.710571,434.432373 
	C500.164886,424.443787 493.289581,415.200989 487.183228,405.514526 
	C475.257355,386.596619 461.031769,369.449585 445.934875,353.088074 
	C429.357727,335.122314 411.652771,318.246338 392.459503,303.035248 
	C384.388489,296.638763 376.301697,290.207642 367.771423,284.461304 
	C359.968109,279.204651 350.878326,278.951019 341.601379,278.792297 
	C329.210968,278.580292 319.659637,284.510590 313.653778,293.542572 
	C302.675385,310.052612 303.294708,334.129761 322.538452,348.896790 
	C334.785889,358.295074 347.441498,367.286652 358.816132,377.664032 
	C371.664856,389.386353 383.393951,402.351776 395.408661,414.968323 
	C410.333923,430.641205 422.118225,448.760223 433.724915,466.838684 
	C441.296844,478.632629 446.873383,491.738892 452.976898,504.433685 
	C457.175568,513.166626 461.006012,522.100647 464.517181,531.132874 
	C467.584961,539.024536 470.205750,547.111450 472.603027,555.236328 
	C475.006104,563.380920 477.217194,571.612366 478.907990,579.928589 
	C480.681183,588.650146 481.881348,597.498169 483.068207,606.326355 
	C484.521942,617.139709 486.545654,627.968506 486.821075,638.828735 
	C487.363495,660.217896 487.596283,681.655334 483.061829,702.813049 
	C480.459717,714.954590 479.050293,727.374146 476.019745,739.395203 
	C472.799896,752.167175 468.620300,764.729004 464.257721,777.171448 
	C460.516693,787.841187 456.712860,798.620850 451.530212,808.623047 
	C443.290924,824.524414 434.248444,840.046082 424.836151,855.290283 
	C418.650574,865.308350 411.719879,874.971924 404.214203,884.042358 
	C394.916077,895.278870 385.161926,906.235229 374.713837,916.396606 
	C363.644867,927.161560 351.581665,936.911194 339.854492,946.989990 
	C331.459961,954.204712 321.694183,959.772522 315.650238,969.690735 
	C307.681946,982.766724 308.243927,999.306702 316.898132,1012.146179 
	C322.494171,1020.448608 330.278351,1025.974365 339.381195,1027.642578 
	C351.506744,1029.864746 364.006989,1028.439087 374.156769,1020.201721 
	C390.871399,1006.636536 407.392029,992.817749 423.634735,978.692322 
	C431.064026,972.231445 437.886932,965.013672 444.528381,957.723267 
	C451.022888,950.594055 457.104156,943.067139 463.062347,935.475830 
	C470.389404,926.140564 477.593018,916.694885 484.487885,907.038452 
	C489.925446,899.423096 494.814880,891.416382 500.457916,883.025696 
M246.450653,411.970428 
	C240.307861,408.811157 234.389923,405.061554 227.974594,402.617767 
	C215.336731,397.803619 202.621887,398.662567 191.314133,406.150421 
	C184.505127,410.659241 179.213745,416.620941 176.406555,425.312805 
	C174.177795,432.213684 173.168579,438.910156 174.416733,445.424133 
	C176.932404,458.553375 185.468216,467.731598 196.857468,474.413391 
	C207.664948,480.753876 218.747314,486.715393 229.049789,493.801666 
	C239.141190,500.742798 248.861206,508.388000 257.910736,516.638367 
	C269.326172,527.045715 280.443817,537.895935 290.669220,549.457764 
	C299.830933,559.816895 307.477386,571.455750 312.316254,584.683472 
	C314.814087,591.511658 318.213043,598.039124 320.325867,604.970459 
	C322.192871,611.095520 322.443542,617.698914 324.111786,623.901855 
	C327.318329,635.824646 325.682434,647.607300 323.199860,659.212097 
	C321.178467,668.661194 318.425476,678.069275 314.854706,687.040894 
	C310.803101,697.220581 306.001953,707.190613 300.589935,716.719788 
	C291.997070,731.849854 280.997803,745.327515 269.252869,758.117065 
	C262.359314,765.623718 255.123718,772.862732 247.578796,779.711853 
	C239.997955,786.593567 232.045624,793.109802 223.887360,799.300293 
	C213.707214,807.025085 203.336899,814.532959 192.708221,821.624268 
	C179.465408,830.459717 169.533585,840.918701 170.967606,858.339539 
	C171.280289,862.138062 170.339417,866.240662 171.457291,869.728333 
	C173.490356,876.071472 176.895172,881.874817 182.050613,886.422974 
	C191.886612,895.100403 203.094360,898.958313 216.201920,896.337036 
	C227.443100,894.089050 236.495407,887.426270 245.354294,880.917297 
	C262.028564,868.666016 278.392029,855.958130 294.404480,842.853333 
	C302.998444,835.820007 310.959076,827.908020 318.553497,819.783081 
	C329.439331,808.136963 340.024384,796.177063 350.163483,783.877747 
	C356.326904,776.401245 361.786041,768.265198 366.868103,759.999084 
	C371.702332,752.136108 375.997162,743.886353 379.871613,735.502747 
	C384.611542,725.246582 388.880280,714.755798 392.925415,704.202637 
	C394.855133,699.168335 395.565765,693.680664 397.232819,688.529175 
	C401.379211,675.716187 402.339722,662.398010 402.822968,649.163208 
	C403.385651,633.752991 403.869171,618.229553 400.035400,603.004089 
	C397.576630,593.239258 396.237885,583.117615 392.962036,573.652649 
	C389.020386,562.264160 383.802734,551.287476 378.693512,540.339783 
	C370.910919,523.663757 359.991669,508.887451 348.155670,495.036285 
	C337.825897,482.947815 326.101868,471.984100 314.425659,461.134979 
	C305.907928,453.220612 296.831116,445.786224 287.348633,439.061279 
	C274.222107,429.751892 260.480621,421.309692 246.450653,411.970428 
M610.029297,799.317017 
	C610.688782,800.244263 611.271484,801.239197 612.019836,802.088074 
	C618.342102,809.259338 623.653198,817.893250 631.272522,823.221313 
	C643.954346,832.089539 658.086670,838.937805 674.058167,837.961853 
	C676.074402,844.044250 678.097046,849.743713 679.852661,855.524292 
	C683.763062,868.399475 691.872131,878.673340 702.215393,886.372925 
	C722.227295,901.270081 744.481567,910.300476 770.305481,909.253784 
	C780.316284,908.848022 788.995728,906.699280 797.126831,901.038818 
	C806.849060,894.270630 811.695984,878.322449 805.625977,868.582031 
	C800.298035,860.032410 790.771729,853.635193 779.440125,856.692139 
	C775.404785,857.780701 770.676392,858.799072 766.865601,857.722107 
	C757.828918,855.168091 748.898743,851.879822 740.397034,847.885010 
	C730.928833,843.436096 726.158691,834.040894 727.472900,825.111694 
	C728.127686,825.020813 728.859314,825.089478 729.426208,824.816284 
	C754.006714,812.968567 777.141541,798.927979 797.267212,780.275146 
	C802.800659,775.146606 808.651672,770.362000 814.231262,765.281494 
	C822.917114,757.372681 831.982300,749.802002 839.995850,741.252991 
	C849.935425,730.649170 859.257751,719.425598 868.315918,708.047180 
	C879.630066,693.835022 891.476257,679.978882 893.472717,660.491394 
	C894.312561,652.294067 893.683350,644.764343 889.468384,638.174805 
	C882.228271,626.856140 871.339172,622.090881 857.824707,622.942139 
	C846.462646,623.657776 835.273071,624.703308 824.470825,628.817200 
	C808.192383,635.016602 792.790161,642.604309 778.463318,652.698669 
	C762.125977,664.209656 746.308167,676.355347 732.284241,690.499878 
	C719.711304,703.180969 709.002258,717.440247 699.361816,732.684082 
	C689.526245,748.236328 682.498108,764.730469 677.134705,782.088989 
	C676.188477,785.151306 674.498413,785.395630 672.449402,784.904419 
	C668.888489,784.050659 665.140747,783.202881 662.027161,781.395203 
	C650.974609,774.978882 646.640869,764.472534 646.103699,752.316345 
	C645.793030,745.287048 642.842468,740.146729 637.544922,735.920593 
	C629.549683,729.542725 620.785522,729.212097 612.104187,733.583374 
	C606.259888,736.526123 600.822083,741.421143 600.221619,748.110046 
	C598.641479,765.712158 600.165344,783.013672 610.029297,799.317017 
M892.009705,366.509247 
	C891.004150,365.672913 890.068787,364.729523 888.982483,364.016144 
	C870.332825,351.769287 849.252991,351.481903 828.372986,353.309174 
	C811.488037,354.786804 795.877563,361.430695 780.937439,369.855560 
	C757.404663,383.125946 740.699097,402.572723 728.117981,425.840088 
	C719.198242,442.336182 712.743042,459.824341 710.976990,478.737183 
	C709.357788,496.077576 708.791443,513.195068 714.863281,530.102539 
	C723.451294,554.016479 740.899109,568.607849 763.448975,577.917053 
	C783.487793,586.189636 804.493225,586.044983 825.709839,584.106079 
	C840.178040,582.783936 853.073120,577.145691 865.760315,570.918030 
	C875.562439,566.106506 885.067139,560.639343 894.455505,555.046387 
	C907.667725,547.175476 920.863770,539.281494 931.183105,527.433594 
	C938.908020,518.564331 940.927795,504.531219 934.863831,495.311890 
	C927.658997,484.358032 916.603821,481.472443 903.759338,487.349854 
	C895.075195,491.323608 887.758179,498.175293 879.388367,502.969238 
	C863.372681,512.142395 847.342346,521.395386 830.704956,529.329529 
	C823.353577,532.835327 814.464478,534.787842 806.350220,534.571228 
	C797.564331,534.336731 788.603699,531.474915 780.211731,528.410339 
	C772.841553,525.718872 766.235168,521.081238 764.055969,512.000000 
	C767.486267,512.000000 770.760559,512.072266 774.030762,511.987823 
	C790.793945,511.555054 807.645996,513.382996 824.235901,509.054016 
	C849.705322,502.408051 872.157043,490.207092 891.653137,472.705170 
	C901.523193,463.844666 908.833801,453.048523 914.171143,440.713470 
	C919.747437,427.826324 919.411438,414.264801 917.296753,401.459167 
	C914.875854,386.800415 904.446533,375.902466 892.009705,366.509247 
M85.959282,729.655518 
	C87.500496,738.131958 94.007050,743.236694 100.066605,747.778198 
	C110.517708,755.611084 123.349991,753.720398 135.199310,752.541016 
	C142.700958,751.794373 150.059128,748.055725 157.132996,744.881958 
	C172.268417,738.091187 186.449081,729.635437 198.444382,717.997009 
	C209.865936,706.915283 219.622314,694.795410 226.732300,680.181030 
	C233.513260,666.243042 237.232239,651.949036 237.903870,636.757507 
	C238.372131,626.166077 237.578857,615.677063 235.240692,605.144348 
	C232.886444,594.539246 228.741608,584.843018 223.793015,575.434143 
	C217.416412,563.310242 208.150375,553.336365 197.851868,544.497070 
	C187.830597,535.895630 176.927429,528.484863 164.309875,523.966125 
	C158.305740,521.815857 152.542313,518.833679 146.406616,517.245056 
	C135.000336,514.291809 123.406189,512.720581 111.973907,517.516174 
	C100.760849,522.219910 93.210106,530.660706 90.191338,542.124878 
	C88.033501,550.319641 87.856712,558.759521 91.465904,567.390930 
	C96.635872,579.754883 105.759483,587.146240 117.755882,590.777649 
	C127.478287,593.720703 136.849258,596.850586 145.020111,602.998230 
	C151.007965,607.503418 155.545395,613.193542 158.020676,620.235779 
	C162.885696,634.076843 155.322601,653.631775 141.851059,663.031433 
	C133.672211,668.738098 125.106560,673.480652 115.359505,676.120422 
	C110.649826,677.395996 105.890007,679.278625 101.807182,681.903931 
	C94.393715,686.670959 88.739319,692.817444 85.440834,701.618896 
	C81.887444,711.100525 81.892372,719.875061 85.959282,729.655518 
z"/>
<path fill="#FFFFFF" opacity="1.000000" stroke="none" 
	d="
M580.211670,1026.708252 
	C571.466980,1015.421265 564.207153,1003.653259 558.466492,990.964844 
	C551.616272,975.823853 546.479004,960.153870 544.021912,943.677246 
	C543.516907,940.290527 543.379333,936.850708 542.991394,933.444580 
	C541.746704,922.515869 555.163513,909.599426 566.258728,909.585266 
	C584.772034,909.561707 591.895508,920.299438 595.133179,936.573181 
	C599.487122,958.457520 608.177307,978.479614 622.409973,996.065063 
	C635.098938,1011.743225 651.319153,1021.959595 670.014526,1028.321411 
	C678.342957,1031.155518 687.246765,1032.439331 695.977844,1033.897461 
	C701.300171,1034.786255 706.790405,1034.938477 712.206177,1034.949097 
	C728.584412,1034.980835 744.448181,1031.542358 760.184875,1027.385010 
	C780.471375,1022.025574 799.405457,1013.379883 818.133850,1004.086365 
	C829.492126,998.450195 837.510437,990.237366 843.682129,979.128357 
	C851.874878,964.381165 860.238342,949.433716 870.733765,936.339966 
	C882.335449,921.866150 895.609375,908.446106 909.630249,896.265320 
	C930.494873,878.139038 952.925476,861.828247 974.162415,844.112854 
	C987.317261,833.139282 1000.456787,821.854248 1011.832703,809.126526 
	C1022.431030,797.268616 1031.244629,783.672058 1039.826294,770.192993 
	C1049.665161,754.739502 1057.468750,738.120667 1062.201416,720.322388 
	C1068.355103,697.179871 1074.438965,674.006348 1079.835327,650.680176 
	C1082.677124,638.396362 1084.134766,625.780151 1085.960693,613.276550 
	C1088.119019,598.496948 1090.151855,583.695374 1091.955444,568.868835 
	C1093.510498,556.086426 1094.747803,543.263306 1095.979370,530.444153 
	C1097.403809,515.617554 1098.944824,500.793823 1099.925415,485.935211 
	C1100.936279,470.620575 1102.065430,455.253601 1101.816284,439.931091 
	C1101.498901,420.408813 1100.373779,400.770203 1093.885010,382.095703 
	C1088.212524,365.770508 1080.151489,350.647858 1069.487183,336.872101 
	C1053.011841,315.589813 1032.244385,299.767303 1008.685425,287.222015 
	C985.837585,275.055481 961.671631,266.674408 936.248474,262.060455 
	C924.596375,259.945740 912.809143,258.539551 901.053833,257.042938 
	C893.915588,256.134125 886.698181,254.938004 879.557190,255.163696 
	C867.449585,255.546371 855.349976,256.721954 843.293396,258.001190 
	C834.102722,258.976349 824.857056,260.067200 815.860718,262.101013 
	C799.572449,265.783295 783.212891,269.452454 767.313232,274.485718 
	C738.044861,283.751129 710.784485,297.507446 685.691528,315.192047 
	C675.449768,322.410034 665.980591,330.782074 656.527344,339.049225 
	C634.581238,358.241760 618.029114,381.519318 605.669373,407.831451 
	C603.561462,412.318817 601.860840,416.998505 599.998108,421.599915 
	C593.622314,437.350006 582.289307,441.907623 568.268127,439.846497 
	C559.142944,438.505066 550.576477,426.241364 549.848022,417.067627 
	C549.017151,406.605225 553.282959,397.708984 557.124817,388.713531 
	C565.192383,369.823456 575.640747,352.134125 588.581177,336.277802 
	C599.139832,323.339813 611.208862,311.603760 622.943848,299.664703 
	C636.352661,286.022736 651.840515,274.943634 667.866272,264.593750 
	C691.166382,249.545929 715.778564,236.948776 742.058716,228.240494 
	C762.444519,221.485367 783.348267,216.127747 804.277527,211.244965 
	C815.472717,208.633118 827.177917,207.878052 838.707886,207.108917 
	C855.182434,206.009949 871.720642,204.928574 888.206909,205.222885 
	C902.561035,205.479141 916.894470,207.521729 931.212708,209.009933 
	C952.643494,211.237381 973.329224,216.662888 993.583496,223.904633 
	C1022.287903,234.167648 1048.983765,247.972778 1072.821655,267.224030 
	C1099.113403,288.457123 1120.490112,313.559021 1134.665527,344.368652 
	C1141.525146,359.277740 1146.551392,374.809418 1149.089478,391.173248 
	C1153.484009,419.506226 1151.703491,447.998047 1151.880737,476.431488 
	C1151.947266,487.097870 1150.995117,497.805786 1149.924194,508.436035 
	C1148.208862,525.464966 1145.999756,542.444031 1144.014160,559.445923 
	C1142.331543,573.852478 1140.862915,588.287231 1138.941528,602.661743 
	C1137.222778,615.520142 1135.042847,628.317627 1133.015259,641.133911 
	C1131.040527,653.614929 1129.460693,666.182312 1126.862671,678.534119 
	C1124.185425,691.262451 1120.914062,703.905579 1117.132935,716.352112 
	C1112.153198,732.743591 1107.226562,749.235413 1100.760132,765.064453 
	C1095.563721,777.784851 1088.610229,789.883240 1081.514526,801.704224 
	C1074.884277,812.749451 1067.476196,823.403503 1059.585815,833.591064 
	C1053.837524,841.013062 1046.783813,847.430481 1040.249878,854.236023 
	C1025.904907,869.177368 1010.294373,882.589233 993.267334,894.460938 
	C984.072144,900.872192 975.530457,908.267029 967.001038,915.576477 
	C953.172729,927.426819 938.997131,938.966187 926.078918,951.758667 
	C912.462463,965.242676 901.187012,980.689819 892.267700,997.912109 
	C888.060364,1006.035950 882.177429,1013.558289 875.896057,1020.269714 
	C869.075256,1027.557495 860.551331,1033.223511 853.422791,1040.258179 
	C845.123413,1048.448120 835.273438,1053.903687 824.861694,1058.581421 
	C801.665527,1069.003174 777.909302,1077.509033 752.736816,1082.170532 
	C731.352905,1086.130493 709.878113,1085.397949 688.487244,1084.703003 
	C671.397888,1084.147949 655.013367,1078.881104 639.124756,1072.130493 
	C618.282227,1063.274902 601.123657,1049.669556 585.858887,1033.325195 
	C583.964844,1031.297119 582.255493,1029.096680 580.211670,1026.708252 
z"/>
<path fill="#FFFFFF" opacity="1.000000" stroke="none" 
	d="
M500.202820,883.304565 
	C494.814880,891.416382 489.925446,899.423096 484.487885,907.038452 
	C477.593018,916.694885 470.389404,926.140564 463.062347,935.475830 
	C457.104156,943.067139 451.022888,950.594055 444.528381,957.723267 
	C437.886932,965.013672 431.064026,972.231445 423.634735,978.692322 
	C407.392029,992.817749 390.871399,1006.636536 374.156769,1020.201721 
	C364.006989,1028.439087 351.506744,1029.864746 339.381195,1027.642578 
	C330.278351,1025.974365 322.494171,1020.448608 316.898132,1012.146179 
	C308.243927,999.306702 307.681946,982.766724 315.650238,969.690735 
	C321.694183,959.772522 331.459961,954.204712 339.854492,946.989990 
	C351.581665,936.911194 363.644867,927.161560 374.713837,916.396606 
	C385.161926,906.235229 394.916077,895.278870 404.214203,884.042358 
	C411.719879,874.971924 418.650574,865.308350 424.836151,855.290283 
	C434.248444,840.046082 443.290924,824.524414 451.530212,808.623047 
	C456.712860,798.620850 460.516693,787.841187 464.257721,777.171448 
	C468.620300,764.729004 472.799896,752.167175 476.019745,739.395203 
	C479.050293,727.374146 480.459717,714.954590 483.061829,702.813049 
	C487.596283,681.655334 487.363495,660.217896 486.821075,638.828735 
	C486.545654,627.968506 484.521942,617.139709 483.068207,606.326355 
	C481.881348,597.498169 480.681183,588.650146 478.907990,579.928589 
	C477.217194,571.612366 475.006104,563.380920 472.603027,555.236328 
	C470.205750,547.111450 467.584961,539.024536 464.517181,531.132874 
	C461.006012,522.100647 457.175568,513.166626 452.976898,504.433685 
	C446.873383,491.738892 441.296844,478.632629 433.724915,466.838684 
	C422.118225,448.760223 410.333923,430.641205 395.408661,414.968323 
	C383.393951,402.351776 371.664856,389.386353 358.816132,377.664032 
	C347.441498,367.286652 334.785889,358.295074 322.538452,348.896790 
	C303.294708,334.129761 302.675385,310.052612 313.653778,293.542572 
	C319.659637,284.510590 329.210968,278.580292 341.601379,278.792297 
	C350.878326,278.951019 359.968109,279.204651 367.771423,284.461304 
	C376.301697,290.207642 384.388489,296.638763 392.459503,303.035248 
	C411.652771,318.246338 429.357727,335.122314 445.934875,353.088074 
	C461.031769,369.449585 475.257355,386.596619 487.183228,405.514526 
	C493.289581,415.200989 500.164886,424.443787 505.710571,434.432373 
	C512.982605,447.530487 519.394104,461.113770 525.962280,474.592407 
	C529.723999,482.312012 533.339539,490.127869 536.506653,498.104584 
	C539.198975,504.885712 541.278076,511.921753 543.406860,518.912476 
	C546.557739,529.259583 549.740845,539.607056 552.464722,550.070312 
	C554.085022,556.294434 554.751282,562.761047 556.027344,569.082092 
	C557.577881,576.762695 559.445984,584.380371 560.920593,592.074402 
	C561.595276,595.594116 561.760559,599.224976 561.978821,602.816223 
	C562.696472,614.624817 563.593079,626.431030 563.926758,638.252075 
	C564.260437,650.074829 564.388184,661.930664 563.891235,673.741882 
	C563.390198,685.649719 562.117493,697.530884 560.979553,709.404297 
	C560.158264,717.973083 559.337463,726.567200 557.884644,735.041687 
	C556.867676,740.973450 554.660400,746.691711 553.211304,752.561279 
	C551.671143,758.799866 550.717712,765.197205 548.928467,771.356812 
	C546.672302,779.123718 543.881409,786.738342 541.225220,794.385315 
	C538.207520,803.073059 535.448669,811.876221 531.915527,820.353333 
	C527.270813,831.497070 522.295044,842.529785 516.876038,853.316040 
	C511.800446,863.418762 505.961182,873.137817 500.202820,883.304565 
z"/>
<path fill="#FFFFFF" opacity="1.000000" stroke="none" 
	d="
M246.726547,412.233276 
	C260.480621,421.309692 274.222107,429.751892 287.348633,439.061279 
	C296.831116,445.786224 305.907928,453.220612 314.425659,461.134979 
	C326.101868,471.984100 337.825897,482.947815 348.155670,495.036285 
	C359.991669,508.887451 370.910919,523.663757 378.693512,540.339783 
	C383.802734,551.287476 389.020386,562.264160 392.962036,573.652649 
	C396.237885,583.117615 397.576630,593.239258 400.035400,603.004089 
	C403.869171,618.229553 403.385651,633.752991 402.822968,649.163208 
	C402.339722,662.398010 401.379211,675.716187 397.232819,688.529175 
	C395.565765,693.680664 394.855133,699.168335 392.925415,704.202637 
	C388.880280,714.755798 384.611542,725.246582 379.871613,735.502747 
	C375.997162,743.886353 371.702332,752.136108 366.868103,759.999084 
	C361.786041,768.265198 356.326904,776.401245 350.163483,783.877747 
	C340.024384,796.177063 329.439331,808.136963 318.553497,819.783081 
	C310.959076,827.908020 302.998444,835.820007 294.404480,842.853333 
	C278.392029,855.958130 262.028564,868.666016 245.354294,880.917297 
	C236.495407,887.426270 227.443100,894.089050 216.201920,896.337036 
	C203.094360,898.958313 191.886612,895.100403 182.050613,886.422974 
	C176.895172,881.874817 173.490356,876.071472 171.457291,869.728333 
	C170.339417,866.240662 171.280289,862.138062 170.967606,858.339539 
	C169.533585,840.918701 179.465408,830.459717 192.708221,821.624268 
	C203.336899,814.532959 213.707214,807.025085 223.887360,799.300293 
	C232.045624,793.109802 239.997955,786.593567 247.578796,779.711853 
	C255.123718,772.862732 262.359314,765.623718 269.252869,758.117065 
	C280.997803,745.327515 291.997070,731.849854 300.589935,716.719788 
	C306.001953,707.190613 310.803101,697.220581 314.854706,687.040894 
	C318.425476,678.069275 321.178467,668.661194 323.199860,659.212097 
	C325.682434,647.607300 327.318329,635.824646 324.111786,623.901855 
	C322.443542,617.698914 322.192871,611.095520 320.325867,604.970459 
	C318.213043,598.039124 314.814087,591.511658 312.316254,584.683472 
	C307.477386,571.455750 299.830933,559.816895 290.669220,549.457764 
	C280.443817,537.895935 269.326172,527.045715 257.910736,516.638367 
	C248.861206,508.388000 239.141190,500.742798 229.049789,493.801666 
	C218.747314,486.715393 207.664948,480.753876 196.857468,474.413391 
	C185.468216,467.731598 176.932404,458.553375 174.416733,445.424133 
	C173.168579,438.910156 174.177795,432.213684 176.406555,425.312805 
	C179.213745,416.620941 184.505127,410.659241 191.314133,406.150421 
	C202.621887,398.662567 215.336731,397.803619 227.974594,402.617767 
	C234.389923,405.061554 240.307861,408.811157 246.726547,412.233276 
z"/>
<path fill="#FFFFFF" opacity="1.000000" stroke="none" 
	d="
M609.994934,798.937805 
	C600.165344,783.013672 598.641479,765.712158 600.221619,748.110046 
	C600.822083,741.421143 606.259888,736.526123 612.104187,733.583374 
	C620.785522,729.212097 629.549683,729.542725 637.544922,735.920593 
	C642.842468,740.146729 645.793030,745.287048 646.103699,752.316345 
	C646.640869,764.472534 650.974609,774.978882 662.027161,781.395203 
	C665.140747,783.202881 668.888489,784.050659 672.449402,784.904419 
	C674.498413,785.395630 676.188477,785.151306 677.134705,782.088989 
	C682.498108,764.730469 689.526245,748.236328 699.361816,732.684082 
	C709.002258,717.440247 719.711304,703.180969 732.284241,690.499878 
	C746.308167,676.355347 762.125977,664.209656 778.463318,652.698669 
	C792.790161,642.604309 808.192383,635.016602 824.470825,628.817200 
	C835.273071,624.703308 846.462646,623.657776 857.824707,622.942139 
	C871.339172,622.090881 882.228271,626.856140 889.468384,638.174805 
	C893.683350,644.764343 894.312561,652.294067 893.472717,660.491394 
	C891.476257,679.978882 879.630066,693.835022 868.315918,708.047180 
	C859.257751,719.425598 849.935425,730.649170 839.995850,741.252991 
	C831.982300,749.802002 822.917114,757.372681 814.231262,765.281494 
	C808.651672,770.362000 802.800659,775.146606 797.267212,780.275146 
	C777.141541,798.927979 754.006714,812.968567 729.426208,824.816284 
	C728.859314,825.089478 728.127686,825.020813 727.472107,825.105835 
	C726.158691,834.040894 730.928833,843.436096 740.397034,847.885010 
	C748.898743,851.879822 757.828918,855.168091 766.865601,857.722107 
	C770.676392,858.799072 775.404785,857.780701 779.440125,856.692139 
	C790.771729,853.635193 800.298035,860.032410 805.625977,868.582031 
	C811.695984,878.322449 806.849060,894.270630 797.126831,901.038818 
	C788.995728,906.699280 780.316284,908.848022 770.305481,909.253784 
	C744.481567,910.300476 722.227295,901.270081 702.215393,886.372925 
	C691.872131,878.673340 683.763062,868.399475 679.852661,855.524292 
	C678.097046,849.743713 676.074402,844.044250 674.058167,837.961853 
	C658.086670,838.937805 643.954346,832.089539 631.272522,823.221313 
	C623.653198,817.893250 618.342102,809.259338 612.019836,802.088074 
	C611.271484,801.239197 610.688782,800.244263 609.994934,798.937805 
M802.054871,704.412903 
	C802.617493,703.379456 803.180176,702.346008 803.742798,701.312622 
	C803.317993,700.905334 802.893188,700.498108 802.468384,700.090820 
	C785.960022,712.654053 769.438477,725.202759 757.607483,743.061157 
	C760.663391,742.036560 763.550659,740.688904 765.777588,738.627747 
	C777.800415,727.499756 789.659607,716.194885 802.054871,704.412903 
z"/>
<path fill="#FFFFFF" opacity="1.000000" stroke="none" 
	d="
M892.299316,366.736237 
	C904.446533,375.902466 914.875854,386.800415 917.296753,401.459167 
	C919.411438,414.264801 919.747437,427.826324 914.171143,440.713470 
	C908.833801,453.048523 901.523193,463.844666 891.653137,472.705170 
	C872.157043,490.207092 849.705322,502.408051 824.235901,509.054016 
	C807.645996,513.382996 790.793945,511.555054 774.030762,511.987823 
	C770.760559,512.072266 767.486267,512.000000 764.055969,512.000000 
	C766.235168,521.081238 772.841553,525.718872 780.211731,528.410339 
	C788.603699,531.474915 797.564331,534.336731 806.350220,534.571228 
	C814.464478,534.787842 823.353577,532.835327 830.704956,529.329529 
	C847.342346,521.395386 863.372681,512.142395 879.388367,502.969238 
	C887.758179,498.175293 895.075195,491.323608 903.759338,487.349854 
	C916.603821,481.472443 927.658997,484.358032 934.863831,495.311890 
	C940.927795,504.531219 938.908020,518.564331 931.183105,527.433594 
	C920.863770,539.281494 907.667725,547.175476 894.455505,555.046387 
	C885.067139,560.639343 875.562439,566.106506 865.760315,570.918030 
	C853.073120,577.145691 840.178040,582.783936 825.709839,584.106079 
	C804.493225,586.044983 783.487793,586.189636 763.448975,577.917053 
	C740.899109,568.607849 723.451294,554.016479 714.863281,530.102539 
	C708.791443,513.195068 709.357788,496.077576 710.976990,478.737183 
	C712.743042,459.824341 719.198242,442.336182 728.117981,425.840088 
	C740.699097,402.572723 757.404663,383.125946 780.937439,369.855560 
	C795.877563,361.430695 811.488037,354.786804 828.372986,353.309174 
	C849.252991,351.481903 870.332825,351.769287 888.982483,364.016144 
	C890.068787,364.729523 891.004150,365.672913 892.299316,366.736237 
M851.899414,404.375854 
	C845.123169,402.177734 838.428101,403.252441 831.799622,405.017395 
	C811.588318,410.398987 793.895630,419.712616 781.897156,437.636932 
	C776.410950,445.832672 771.066589,454.131378 767.852722,464.469452 
	C774.012329,463.946106 779.561401,463.245148 785.128479,463.046478 
	C799.351685,462.538940 813.084656,459.349365 825.987061,453.788483 
	C839.160889,448.110657 852.001770,441.171051 860.938843,429.388184 
	C869.299072,418.365936 870.279724,412.516022 857.646851,406.305206 
	C856.092712,405.541168 854.239441,405.385376 851.899414,404.375854 
z"/>
<path fill="#FFFFFF" opacity="1.000000" stroke="none" 
	d="
M85.728828,729.325378 
	C81.892372,719.875061 81.887444,711.100525 85.440834,701.618896 
	C88.739319,692.817444 94.393715,686.670959 101.807182,681.903931 
	C105.890007,679.278625 110.649826,677.395996 115.359505,676.120422 
	C125.106560,673.480652 133.672211,668.738098 141.851059,663.031433 
	C155.322601,653.631775 162.885696,634.076843 158.020676,620.235779 
	C155.545395,613.193542 151.007965,607.503418 145.020111,602.998230 
	C136.849258,596.850586 127.478287,593.720703 117.755882,590.777649 
	C105.759483,587.146240 96.635872,579.754883 91.465904,567.390930 
	C87.856712,558.759521 88.033501,550.319641 90.191338,542.124878 
	C93.210106,530.660706 100.760849,522.219910 111.973907,517.516174 
	C123.406189,512.720581 135.000336,514.291809 146.406616,517.245056 
	C152.542313,518.833679 158.305740,521.815857 164.309875,523.966125 
	C176.927429,528.484863 187.830597,535.895630 197.851868,544.497070 
	C208.150375,553.336365 217.416412,563.310242 223.793015,575.434143 
	C228.741608,584.843018 232.886444,594.539246 235.240692,605.144348 
	C237.578857,615.677063 238.372131,626.166077 237.903870,636.757507 
	C237.232239,651.949036 233.513260,666.243042 226.732300,680.181030 
	C219.622314,694.795410 209.865936,706.915283 198.444382,717.997009 
	C186.449081,729.635437 172.268417,738.091187 157.132996,744.881958 
	C150.059128,748.055725 142.700958,751.794373 135.199310,752.541016 
	C123.349991,753.720398 110.517708,755.611084 100.066605,747.778198 
	C94.007050,743.236694 87.500496,738.131958 85.728828,729.325378 
z"/>
<path fill="#000000" opacity="1.000000" stroke="none" 
	d="
M801.815063,704.681885 
	C789.659607,716.194885 777.800415,727.499756 765.777588,738.627747 
	C763.550659,740.688904 760.663391,742.036560 757.607483,743.061157 
	C769.438477,725.202759 785.960022,712.654053 802.468384,700.090820 
	C802.893188,700.498108 803.317993,700.905334 803.742798,701.312622 
	C803.180176,702.346008 802.617493,703.379456 801.815063,704.681885 
z"/>
<path fill="#000000" opacity="1.000000" stroke="none" 
	d="
M852.212158,404.661774 
	C854.239441,405.385376 856.092712,405.541168 857.646851,406.305206 
	C870.279724,412.516022 869.299072,418.365936 860.938843,429.388184 
	C852.001770,441.171051 839.160889,448.110657 825.987061,453.788483 
	C813.084656,459.349365 799.351685,462.538940 785.128479,463.046478 
	C779.561401,463.245148 774.012329,463.946106 767.852722,464.469452 
	C771.066589,454.131378 776.410950,445.832672 781.897156,437.636932 
	C793.895630,419.712616 811.588318,410.398987 831.799622,405.017395 
	C838.428101,403.252441 845.123169,402.177734 852.212158,404.661774 
z"/>
</svg>