<svg width="25" height="30" viewBox="0 0 25 30" fill="none" xmlns="http://www.w3.org/2000/svg">
<path d="M3.29629 30C2.73742 30 2.17854 29.8476 1.66643 29.5405C1.15779 29.2409 0.734868 28.8032 0.441775 28.2731C0.148681 27.743 -0.00385352 27.1399 7.39718e-05 26.5267V3.47346C7.39718e-05 2.21012 0.622819 1.08355 1.66643 0.459675C2.7089 -0.165396 3.94755 -0.152199 4.97976 0.494468L23.3907 12.0217C24.3978 12.6528 25 13.7661 25 15.0007C25 16.2352 24.3978 17.3486 23.3907 17.9797L4.9809 29.5069C4.47194 29.8281 3.88983 29.9985 3.29629 30ZM3.30085 2.40328C3.12291 2.40493 2.94828 2.45405 2.7933 2.54605C2.63619 2.63757 2.50554 2.77209 2.41519 2.93536C2.32483 3.09862 2.27814 3.28455 2.28005 3.47346V26.5279C2.28005 27.0882 2.63819 27.3629 2.7933 27.4553C2.94854 27.5506 3.1254 27.5999 3.30512 27.598C3.48484 27.5961 3.66072 27.5431 3.8141 27.4445L22.2239 15.9173C22.671 15.6378 22.72 15.183 22.72 15.0007C22.72 14.8183 22.6721 14.3636 22.2239 14.0841L3.81296 2.55684C3.65904 2.45684 3.48177 2.40369 3.30085 2.40328Z" fill="white"/>
</svg>
