<svg width="21" height="30" viewBox="0 0 21 30" fill="none" xmlns="http://www.w3.org/2000/svg">
<path d="M8.16667 30H1.16667C0.857247 30 0.560501 29.8736 0.341709 29.6485C0.122917 29.4235 0 29.1183 0 28.8V1.2C0 0.88174 0.122917 0.576515 0.341709 0.351472C0.560501 0.126428 0.857247 0 1.16667 0H8.16667C8.47609 0 8.77283 0.126428 8.99162 0.351472C9.21042 0.576515 9.33333 0.88174 9.33333 1.2V28.8C9.33333 29.1183 9.21042 29.4235 8.99162 29.6485C8.77283 29.8736 8.47609 30 8.16667 30ZM2.33333 27.6H7V2.4H2.33333V27.6ZM19.8333 30H12.8333C12.5239 30 12.2272 29.8736 12.0084 29.6485C11.7896 29.4235 11.6667 29.1183 11.6667 28.8V1.2C11.6667 0.88174 11.7896 0.576515 12.0084 0.351472C12.2272 0.126428 12.5239 0 12.8333 0H19.8333C20.1428 0 20.4395 0.126428 20.6583 0.351472C20.8771 0.576515 21 0.88174 21 1.2V28.8C21 29.1183 20.8771 29.4235 20.6583 29.6485C20.4395 29.8736 20.1428 30 19.8333 30ZM14 27.6H18.6667V2.4H14V27.6Z" fill="white"/>
</svg>
